<?xml version="1.0" encoding="utf-8"?>
<!-- Generator: Adobe Illustrator 16.0.0, SVG Export Plug-In . SVG Version: 6.00 Build 0)  -->
<!DOCTYPE svg PUBLIC "-//W3C//DTD SVG 1.1//EN" "http://www.w3.org/Graphics/SVG/1.1/DTD/svg11.dtd">
<svg version="1.1" id="Capa_1" xmlns="http://www.w3.org/2000/svg" xmlns:xlink="http://www.w3.org/1999/xlink" x="0px" y="0px"
	 width="461px" height="66.5px" viewBox="0 0 461 66.5" enable-background="new 0 0 461 66.5" xml:space="preserve">
<path fill="#0066CC" d="M42.659,27.177h-9.127l-1.148,4.991h7.347v8.035h-9.297l-2.353,9.757h-8.668l2.41-9.757h-3.442l-2.354,9.757
	H7.36l2.413-9.757H3.342v-8.035h8.381l1.147-4.991H6.27v-7.464h8.439l2.582-10.504h8.666l-2.639,10.504h3.444l2.581-10.504h8.666
	l-2.638,10.504h7.289V27.177z M23.774,32.168l1.15-4.991h-3.445l-1.147,4.991H23.774z"/>
<path fill="#0066CC" d="M56.991,9.209h10.217l14.118,40.751H69.964l-2.468-7.978H56.648l-2.411,7.978H42.816L56.991,9.209z
	 M65.714,34.522l-3.613-12.629l-3.788,12.629H65.714z"/>
<path fill="#0066CC" d="M103.382,29.07c-2.106,0-4.019,0.227-5.74,0.688c-1.721,0.458-3.004,1.225-3.845,2.294v17.909H82.892V19.77
	h9.986v5.742c1.07-2.028,2.4-3.588,3.989-4.676c1.588-1.093,3.299-1.637,5.137-1.637c0.727,0,1.186,0.019,1.378,0.058V29.07z"/>
<path fill="#0066CC" d="M125.821,29.07c-2.104,0-4.018,0.227-5.738,0.688c-1.722,0.458-3.005,1.225-3.846,2.294v17.909h-10.905
	V19.77h9.986v5.742c1.071-2.028,2.401-3.588,3.989-4.676c1.588-1.093,3.3-1.637,5.136-1.637c0.726,0,1.187,0.019,1.378,0.058V29.07z
	"/>
<path fill="#0066CC" d="M127.771,8.063h10.905v9.184h-10.905V8.063z M127.771,19.77h10.905v30.189h-10.905V19.77z"/>
<path fill="#0066CC" d="M161.978,50.533c-4.553,0-7.804-1.761-9.757-5.279v4.705h-9.47V8.063h10.906V24.25
	c0.88-1.644,2.123-2.901,3.73-3.761c1.607-0.862,3.501-1.29,5.683-1.29c1.836,0,3.549,0.4,5.137,1.204
	c1.586,0.802,2.956,1.903,4.102,3.299c1.149,1.398,2.048,3.064,2.697,4.994c0.652,1.933,0.976,4.027,0.976,6.284
	c0,2.263-0.353,4.335-1.06,6.229c-0.709,1.893-1.685,3.527-2.928,4.908c-1.244,1.375-2.728,2.457-4.447,3.24
	C165.824,50.145,163.968,50.533,161.978,50.533 M158.823,41.351c1.797,0,3.242-0.571,4.332-1.72c1.091-1.148,1.636-2.68,1.636-4.591
	c0-0.918-0.143-1.781-0.43-2.584s-0.67-1.508-1.149-2.124c-0.478-0.609-1.053-1.089-1.721-1.435
	c-0.672-0.345-1.406-0.516-2.211-0.516c-1.146,0-2.237,0.414-3.271,1.234c-1.034,0.822-1.817,1.903-2.352,3.241v5.396
	C155.073,40.318,156.793,41.351,158.823,41.351"/>
<path fill="#0066CC" d="M264.425,50.533c-2.64,0-4.992-0.41-7.059-1.232c-2.066-0.821-3.798-1.941-5.193-3.357
	c-1.397-1.415-2.459-3.042-3.187-4.88c-0.726-1.836-1.09-3.767-1.09-5.795c0-2.18,0.353-4.247,1.062-6.198
	c0.71-1.953,1.76-3.653,3.154-5.109c1.398-1.455,3.121-2.613,5.167-3.473c2.046-0.861,4.43-1.29,7.146-1.29
	c2.682,0,5.052,0.429,7.117,1.29c2.067,0.86,3.797,2.009,5.193,3.444c1.398,1.434,2.451,3.099,3.159,4.995
	c0.707,1.891,1.058,3.871,1.058,5.937c0,0.578-0.024,1.159-0.083,1.754c-0.059,0.593-0.123,1.117-0.201,1.577H259.49
	c0.112,1.607,0.706,2.764,1.777,3.471c1.07,0.709,2.239,1.063,3.502,1.063c1.187,0,2.307-0.27,3.357-0.805
	c1.053-0.535,1.749-1.279,2.094-2.238l9.243,2.643c-1.228,2.408-3.111,4.381-5.655,5.911
	C271.266,49.768,268.136,50.533,264.425,50.533 M269.246,31.652c-0.191-1.456-0.729-2.602-1.606-3.446
	c-0.882-0.837-2.01-1.262-3.389-1.262c-1.374,0-2.504,0.425-3.383,1.262c-0.882,0.844-1.417,1.99-1.609,3.446H269.246z"/>
<path fill="#0066CC" d="M358.205,29.07c-2.102,0-4.016,0.227-5.736,0.688c-1.723,0.458-3.005,1.225-3.847,2.294v17.909h-10.903
	V19.77h9.984v5.742c1.072-2.028,2.398-3.588,3.989-4.676c1.588-1.093,3.301-1.637,5.138-1.637c0.725,0,1.184,0.019,1.375,0.058
	V29.07z"/>
<path fill="#0066CC" d="M441.828,50.533c-2.718,0-5.102-0.428-7.144-1.292c-2.048-0.858-3.769-2.008-5.167-3.44
	c-1.396-1.436-2.45-3.101-3.159-4.994c-0.705-1.896-1.058-3.877-1.058-5.942c0-2.066,0.353-4.046,1.058-5.937
	c0.709-1.896,1.763-3.561,3.159-4.995c1.398-1.435,3.119-2.584,5.167-3.444c2.042-0.861,4.426-1.29,7.144-1.29
	c2.677,0,5.05,0.429,7.116,1.29c2.066,0.86,3.796,2.009,5.194,3.444c1.395,1.434,2.449,3.099,3.158,4.995
	c0.707,1.891,1.063,3.871,1.063,5.937c0,2.065-0.356,4.047-1.063,5.942c-0.709,1.894-1.764,3.559-3.158,4.994
	c-1.398,1.433-3.128,2.582-5.194,3.44C446.878,50.105,444.505,50.533,441.828,50.533 M436.491,34.864
	c0,2.03,0.495,3.618,1.493,4.767c0.995,1.148,2.274,1.719,3.844,1.719c1.565,0,2.849-0.57,3.845-1.719
	c0.997-1.148,1.494-2.736,1.494-4.767c0-2.026-0.497-3.615-1.494-4.764c-0.996-1.142-2.279-1.719-3.845-1.719
	c-1.569,0-2.849,0.577-3.844,1.719C436.986,31.25,436.491,32.838,436.491,34.864"/>
<path fill="#0066CC" d="M244.771,32.657c-1.36-1.701-3.208-2.898-5.542-3.586c1.954-0.88,3.416-2.192,4.393-3.932
	c0.975-1.739,1.461-3.566,1.461-5.482c0-1.301-0.218-2.573-0.657-3.816c-0.443-1.244-1.062-2.352-1.866-3.33
	c-0.801-0.974-1.779-1.77-2.928-2.38c-1.148-0.614-2.43-0.922-3.844-0.922H212.14l0.054,31.569l-3.38-0.012
	c-0.732-0.085-1.255-0.314-1.552-0.707c-0.307-0.4-0.46-1.115-0.46-2.15v-5.855c0-4.282-1.3-7.498-3.902-9.642
	c-2.603-2.139-6.314-3.212-11.133-3.212c-5.091,0-9.623,1.281-13.603,3.843l3.154,6.775c1.609-1.069,3.139-1.884,4.594-2.44
	c1.452-0.555,3.04-0.835,4.764-0.835c1.835,0,3.166,0.345,3.988,1.036c0.821,0.688,1.232,1.741,1.232,3.158v0.917
	c-1.607-0.766-3.633-1.148-6.082-1.148c-1.914,0-3.664,0.248-5.253,0.744c-1.586,0.5-2.954,1.208-4.102,2.124
	c-1.149,0.921-2.047,2.011-2.697,3.272c-0.651,1.264-0.977,2.66-0.977,4.189c0,1.377,0.268,2.662,0.804,3.847
	c0.535,1.187,1.271,2.211,2.21,3.071c0.935,0.861,2.056,1.539,3.357,2.037c1.301,0.496,2.697,0.744,4.19,0.744
	c1.99,0,3.864-0.447,5.625-1.347c1.759-0.897,3.309-2.209,4.648-3.933l0.231,1.089c0.304,1.381,0.425,1.97,1.439,2.675
	c1.015,0.709,2.498,1.063,4.449,1.063c0.166,0,0.354-0.013,0.533-0.021l-0.007,0.034l12.255-0.133v-0.002h15.653
	c1.987,0,3.873-0.198,5.652-0.602c1.779-0.4,3.338-1.021,4.677-1.865c1.339-0.84,2.392-1.92,3.158-3.242
	c0.766-1.319,1.148-2.899,1.148-4.735C246.808,36.645,246.128,34.359,244.771,32.657 M195.896,39.457c0,0.385-0.132,0.754-0.4,1.121
	c-0.268,0.364-0.613,0.696-1.034,1.004c-0.535,0.343-1.147,0.623-1.835,0.832c-0.69,0.211-1.36,0.314-2.01,0.314
	c-1.033,0-1.885-0.27-2.553-0.804c-0.672-0.536-1.005-1.224-1.005-2.064c0-0.995,0.44-1.815,1.32-2.47
	c0.881-0.648,1.989-0.973,3.329-0.973c0.611,0,1.3,0.074,2.067,0.227c0.764,0.154,1.471,0.348,2.121,0.576V39.457z M223.333,18.741
	h7.977c0.727,0,1.358,0.239,1.895,0.716c0.535,0.475,0.801,1.27,0.801,2.381c0,1.262-0.313,2.105-0.945,2.526
	c-0.631,0.421-1.331,0.63-2.093,0.63h-7.634V18.741z M234.496,39.686c-0.632,0.575-1.408,0.861-2.324,0.861h-8.839v-6.828h9.241
	c0.84,0,1.525,0.334,2.064,1.006c0.534,0.667,0.803,1.5,0.803,2.496C235.441,38.291,235.127,39.111,234.496,39.686"/>
<path fill="#0066CC" d="M324.173,19.77v4.48c-0.956-1.644-2.258-2.901-3.9-3.762c-1.647-0.861-3.563-1.29-5.742-1.29
	c-2.063,0-3.961,0.39-5.684,1.174c-1.72,0.785-3.204,1.867-4.446,3.243c-1.243,1.378-2.208,3.024-2.898,4.937
	c-0.687,1.914-1.032,4-1.032,6.256c0,1.583,0.175,3.081,0.519,4.497c-0.297,0.326-0.613,0.646-0.985,0.924
	c-0.186,0.138-0.368,0.25-0.547,0.359c-0.435,0.244-0.896,0.448-1.397,0.592c-0.536,0.154-1.033,0.229-1.491,0.229
	c-1.876,0-2.811-1.147-2.811-3.442V8.063h-10.908v33.748c0,2.832,0.786,4.991,2.352,6.484c1.573,1.493,3.81,2.238,6.717,2.238
	c1.454,0,2.995-0.17,4.623-0.512c1.539-0.33,2.92-0.787,4.172-1.354l0.014,0.038c0.286-0.174,0.571-0.316,0.858-0.507
	c1.103-0.712,2.046-1.464,2.901-2.243c1.071,1.161,2.305,2.128,3.761,2.828c1.625,0.783,3.415,1.177,5.367,1.177
	c1.95,0,3.737-0.38,5.363-1.146c1.627-0.767,2.878-1.953,3.762-3.56v1.949c0,1.34-0.202,2.491-0.603,3.444
	c-0.404,0.957-0.947,1.731-1.637,2.324c-0.688,0.592-1.482,1.023-2.38,1.293c-0.899,0.269-1.849,0.4-2.843,0.4
	c-1.76,0-3.414-0.354-4.965-1.061c-1.55-0.707-2.88-1.58-3.989-2.612l-5.738,5.972c1.838,1.873,3.939,3.309,6.316,4.303
	c2.369,0.996,5.162,1.491,8.376,1.491c2.754,0,5.261-0.373,7.518-1.118c2.258-0.746,4.191-1.789,5.8-3.129
	c1.607-1.339,2.847-2.963,3.729-4.878c0.879-1.913,1.319-4.054,1.319-6.43V19.77H324.173z M322.738,38.252
	c-0.729,1.033-1.503,1.807-2.325,2.326c-0.825,0.516-1.788,0.773-2.897,0.773c-1.721,0-3.138-0.572-4.248-1.721
	c-1.111-1.148-1.666-2.658-1.666-4.535c0-0.92,0.134-1.789,0.404-2.61c0.266-0.826,0.649-1.531,1.146-2.124
	c0.499-0.594,1.08-1.071,1.751-1.434c0.669-0.364,1.386-0.547,2.153-0.547c1.146,0,2.246,0.402,3.3,1.203
	c1.052,0.804,1.845,1.897,2.382,3.272V38.252z"/>
<path fill="#0066CC" d="M422.832,26.658c-0.189-1.262-0.603-2.446-1.235-3.558c-0.629-1.109-1.548-2.039-2.751-2.785
	c-1.207-0.747-2.844-1.117-4.912-1.117c-2.637,0-4.925,0.429-6.857,1.29c-1.934,0.861-3.437,2.117-4.503,3.762v-4.48h-9.814v21.005
	l-2.574-0.01c-0.733-0.084-1.256-0.314-1.551-0.707c-0.31-0.4-0.461-1.115-0.461-2.151v-5.854c0-4.283-1.304-7.498-3.904-9.643
	c-2.601-2.139-6.313-3.212-11.131-3.212c-5.092,0-9.625,1.281-13.603,3.844l3.154,6.774c1.608-1.069,3.138-1.883,4.593-2.439
	c1.452-0.556,3.041-0.835,4.763-0.835c1.837,0,3.167,0.345,3.987,1.035c0.823,0.689,1.233,1.741,1.233,3.158v0.917
	c-1.607-0.765-3.635-1.147-6.081-1.147c-1.916,0-3.666,0.248-5.252,0.744c-1.589,0.5-2.956,1.207-4.103,2.123
	c-1.148,0.922-2.048,2.012-2.698,3.272c-0.649,1.263-0.978,2.66-0.978,4.19c0,1.377,0.269,2.661,0.805,3.847
	c0.537,1.186,1.272,2.211,2.211,3.071c0.936,0.859,2.055,1.539,3.356,2.035c1.301,0.496,2.696,0.745,4.188,0.745
	c1.99,0,3.865-0.447,5.625-1.348c1.761-0.896,3.312-2.207,4.647-3.931l0.231,1.089c0.306,1.381,0.427,1.969,1.439,2.674
	c1.017,0.709,2.499,1.062,4.449,1.062c0.168,0,0.356-0.013,0.534-0.019l-0.005,0.033l7.646-0.082V49.96h10.381V33.028
	c0.494-1.262,1.263-2.293,2.293-3.096c1.036-0.806,2.013-1.206,2.928-1.206c0.878,0,1.655,0.334,2.325,1.003
	c0.668,0.668,1.004,1.752,1.004,3.243V49.96h10.902V30.101C423.116,29.07,423.022,27.922,422.832,26.658 M377.266,39.457
	c0,0.385-0.133,0.755-0.398,1.121c-0.271,0.363-0.613,0.695-1.035,1.004c-0.536,0.344-1.146,0.623-1.838,0.831
	c-0.687,0.212-1.355,0.315-2.006,0.315c-1.033,0-1.887-0.27-2.555-0.803c-0.67-0.537-1.003-1.225-1.003-2.066
	c0-0.994,0.438-1.814,1.315-2.469c0.884-0.648,1.992-0.973,3.332-0.973c0.611,0,1.3,0.074,2.067,0.227
	c0.763,0.154,1.472,0.347,2.12,0.576V39.457z"/>
</svg>
