<?xml version="1.0" encoding="utf-8"?>
<!-- Generator: Adobe Illustrator 16.0.0, SVG Export Plug-In . SVG Version: 6.00 Build 0)  -->
<!DOCTYPE svg PUBLIC "-//W3C//DTD SVG 1.1//EN" "http://www.w3.org/Graphics/SVG/1.1/DTD/svg11.dtd">
<svg version="1.1" id="Capa_1" xmlns="http://www.w3.org/2000/svg" xmlns:xlink="http://www.w3.org/1999/xlink" x="0px" y="0px"
	 width="202px" height="25px" viewBox="-0.333 7.5 202 25" enable-background="new -0.333 7.5 202 25" xml:space="preserve">
<g enable-background="new    ">
	<path fill="#666666" d="M1.328,27.092V9.067h8.124c0.846,0,1.629,0.177,2.348,0.534c0.719,0.355,1.341,0.821,1.865,1.396
		c0.524,0.576,0.936,1.228,1.231,1.955c0.296,0.728,0.445,1.464,0.445,2.209c0,0.559-0.069,1.096-0.204,1.612
		c-0.136,0.517-0.33,1.003-0.584,1.46c-0.254,0.457-0.563,0.867-0.927,1.23c-0.364,0.364-0.775,0.673-1.231,0.927l3.96,6.702h-4.697
		l-3.452-5.815H5.492v5.814H1.328z M5.492,17.648h3.807c0.491,0,0.914-0.232,1.27-0.697s0.533-1.063,0.533-1.79
		c0-0.745-0.203-1.336-0.609-1.777c-0.407-0.44-0.847-0.66-1.321-0.66h-3.68V17.648z"/>
	<path fill="#666666" d="M23.973,27.346c-1.134,0-2.146-0.187-3.034-0.559c-0.889-0.372-1.638-0.875-2.248-1.511
		c-0.608-0.635-1.069-1.37-1.383-2.208c-0.313-0.838-0.47-1.715-0.47-2.627c0-0.914,0.157-1.79,0.47-2.627
		c0.313-0.839,0.774-1.575,1.383-2.209c0.609-0.635,1.359-1.143,2.248-1.523c0.888-0.382,1.899-0.572,3.034-0.572
		c1.133,0,2.141,0.19,3.021,0.572c0.879,0.38,1.625,0.888,2.234,1.523c0.609,0.634,1.074,1.371,1.396,2.209
		c0.321,0.837,0.482,1.713,0.482,2.627c0,0.915-0.156,1.791-0.47,2.627c-0.313,0.838-0.774,1.573-1.383,2.208
		c-0.61,0.636-1.358,1.139-2.247,1.511C26.119,27.159,25.106,27.346,23.973,27.346z M21.002,20.441c0,1.05,0.279,1.892,0.838,2.526
		c0.559,0.635,1.269,0.952,2.132,0.952c0.423,0,0.813-0.084,1.169-0.253c0.355-0.171,0.664-0.408,0.926-0.712
		c0.263-0.304,0.469-0.672,0.622-1.104c0.153-0.433,0.229-0.901,0.229-1.41c0-1.05-0.279-1.892-0.838-2.526
		s-1.261-0.953-2.107-0.953c-0.423,0-0.816,0.085-1.18,0.255c-0.365,0.169-0.678,0.406-0.939,0.71
		c-0.263,0.305-0.47,0.672-0.623,1.104C21.079,19.463,21.002,19.934,21.002,20.441z"/>
	<path fill="#666666" d="M38.367,27.346c-1.135,0-2.251-0.181-3.352-0.545c-1.1-0.363-2.031-0.893-2.793-1.587l1.447-2.488
		c0.813,0.559,1.604,0.991,2.374,1.295c0.77,0.305,1.51,0.456,2.222,0.456c0.524,0,0.93-0.092,1.219-0.278
		c0.287-0.187,0.432-0.457,0.432-0.812c0-0.356-0.183-0.64-0.546-0.851c-0.364-0.212-1.002-0.437-1.917-0.674
		c-0.897-0.255-1.654-0.499-2.272-0.735c-0.618-0.236-1.121-0.5-1.511-0.787c-0.389-0.288-0.668-0.618-0.837-0.99
		c-0.17-0.373-0.253-0.813-0.253-1.32c0-0.676,0.136-1.294,0.406-1.853c0.271-0.558,0.644-1.032,1.118-1.422
		c0.473-0.389,1.036-0.693,1.688-0.913c0.652-0.221,1.358-0.33,2.121-0.33c0.998,0,1.933,0.136,2.805,0.407
		c0.872,0.271,1.713,0.761,2.525,1.472l-1.574,2.437c-0.761-0.524-1.438-0.906-2.03-1.143c-0.593-0.236-1.168-0.355-1.726-0.355
		c-0.441,0-0.813,0.089-1.118,0.267s-0.457,0.461-0.457,0.85c0,0.373,0.165,0.652,0.495,0.838s0.943,0.39,1.84,0.609
		c0.948,0.254,1.747,0.508,2.399,0.761c0.651,0.254,1.181,0.538,1.586,0.85c0.406,0.313,0.702,0.673,0.889,1.08
		c0.186,0.405,0.278,0.888,0.278,1.447c0,1.32-0.491,2.369-1.473,3.146C41.371,26.957,40.042,27.346,38.367,27.346z"/>
	<path fill="#666666" d="M49.562,27.346c-0.66,0-1.273-0.105-1.84-0.318c-0.567-0.209-1.053-0.507-1.46-0.887
		c-0.406-0.382-0.727-0.83-0.965-1.347c-0.237-0.516-0.355-1.077-0.355-1.688c0-0.659,0.14-1.261,0.419-1.803
		c0.279-0.541,0.673-1.007,1.18-1.396c0.508-0.389,1.108-0.694,1.802-0.914c0.694-0.219,1.464-0.329,2.311-0.329
		c0.559,0,1.1,0.047,1.625,0.14c0.524,0.093,0.981,0.233,1.371,0.419v-0.609c0-1.54-0.889-2.31-2.666-2.31
		c-0.728,0-1.422,0.123-2.082,0.368c-0.66,0.246-1.354,0.614-2.082,1.104l-1.193-2.539c0.88-0.574,1.793-1.006,2.742-1.294
		c0.947-0.288,1.955-0.432,3.021-0.432c2.015,0,3.571,0.475,4.671,1.422c1.1,0.948,1.65,2.335,1.65,4.163v3.427
		c0,0.406,0.063,0.69,0.19,0.85c0.127,0.163,0.352,0.26,0.672,0.295v3.425c-0.355,0.086-0.677,0.14-0.965,0.165
		c-0.288,0.026-0.55,0.039-0.787,0.039c-0.761,0-1.336-0.148-1.726-0.444c-0.39-0.296-0.635-0.716-0.737-1.257l-0.076-0.608
		c-0.593,0.761-1.298,1.346-2.12,1.75C51.343,27.142,50.476,27.346,49.562,27.346z M50.755,24.427c0.44,0,0.867-0.075,1.282-0.229
		s0.757-0.355,1.029-0.609c0.388-0.305,0.583-0.626,0.583-0.965v-1.269c-0.355-0.136-0.741-0.241-1.155-0.318
		c-0.415-0.076-0.799-0.115-1.156-0.115c-0.744,0-1.357,0.172-1.84,0.51s-0.724,0.777-0.724,1.32c0,0.49,0.186,0.892,0.559,1.205
		C49.706,24.271,50.179,24.427,50.755,24.427z"/>
	<path fill="#666666" d="M69.11,17.242c-0.982,0.017-1.87,0.177-2.666,0.482c-0.796,0.304-1.371,0.761-1.726,1.37v7.997h-4.062
		V13.764h3.732v2.691c0.457-0.898,1.045-1.599,1.764-2.108c0.719-0.508,1.485-0.77,2.298-0.788c0.186,0,0.321,0,0.405,0
		c0.085,0,0.169,0.009,0.254,0.025L69.11,17.242L69.11,17.242z"/>
	<path fill="#666666" d="M70.811,12.241V8.56h4.062v3.681H70.811z M70.811,27.092V13.764h4.062v13.328H70.811L70.811,27.092z"/>
	<path fill="#666666" d="M84.011,27.346c-1.134,0-2.145-0.187-3.033-0.559c-0.889-0.372-1.638-0.875-2.247-1.511
		c-0.609-0.635-1.071-1.37-1.383-2.208c-0.313-0.838-0.469-1.715-0.469-2.627c0-0.914,0.156-1.79,0.469-2.627
		c0.313-0.839,0.774-1.575,1.383-2.209c0.609-0.635,1.358-1.143,2.247-1.523c0.888-0.382,1.899-0.572,3.033-0.572
		s2.141,0.19,3.021,0.572c0.879,0.38,1.625,0.888,2.234,1.523c0.609,0.634,1.074,1.371,1.396,2.209
		c0.321,0.837,0.482,1.713,0.482,2.627c0,0.915-0.157,1.791-0.47,2.627c-0.313,0.838-0.774,1.573-1.383,2.208
		c-0.61,0.636-1.358,1.139-2.247,1.511S85.145,27.346,84.011,27.346z M81.041,20.441c0,1.05,0.279,1.892,0.838,2.526
		c0.559,0.635,1.269,0.952,2.132,0.952c0.423,0,0.813-0.084,1.168-0.253c0.355-0.171,0.664-0.408,0.927-0.712
		s0.469-0.672,0.622-1.104c0.153-0.433,0.229-0.901,0.229-1.41c0-1.05-0.279-1.892-0.837-2.526
		c-0.559-0.634-1.261-0.953-2.108-0.953c-0.422,0-0.816,0.085-1.18,0.255c-0.364,0.169-0.677,0.406-0.939,0.71
		c-0.262,0.305-0.469,0.672-0.622,1.104C81.118,19.463,81.041,19.934,81.041,20.441z"/>
	<path fill="#666666" d="M93.303,27.092V9.067h7.692c0.863,0,1.654,0.177,2.373,0.534c0.72,0.355,1.337,0.821,1.853,1.396
		c0.518,0.576,0.923,1.228,1.221,1.955c0.295,0.728,0.443,1.464,0.443,2.209c0,0.796-0.14,1.558-0.418,2.285
		c-0.279,0.728-0.669,1.379-1.167,1.955c-0.5,0.575-1.104,1.032-1.815,1.371c-0.711,0.34-1.499,0.508-2.36,0.508h-3.655v5.813
		L93.303,27.092L93.303,27.092z M97.467,17.648h3.401c0.491,0,0.914-0.211,1.269-0.634c0.356-0.423,0.533-1.041,0.533-1.854
		c0-0.423-0.055-0.787-0.165-1.092c-0.11-0.304-0.259-0.558-0.444-0.761c-0.187-0.204-0.398-0.352-0.634-0.445
		c-0.237-0.093-0.474-0.139-0.711-0.139h-3.249V17.648z"/>
	<path fill="#666666" d="M112.445,27.346c-0.661,0-1.273-0.105-1.84-0.318c-0.568-0.209-1.055-0.507-1.46-0.887
		c-0.406-0.382-0.727-0.83-0.965-1.347c-0.237-0.516-0.355-1.077-0.355-1.688c0-0.659,0.14-1.261,0.418-1.803
		c0.279-0.541,0.672-1.007,1.181-1.396c0.507-0.389,1.108-0.694,1.802-0.914c0.694-0.219,1.464-0.329,2.31-0.329
		c0.56,0,1.1,0.047,1.625,0.14c0.524,0.093,0.98,0.233,1.371,0.419v-0.609c0-1.54-0.888-2.31-2.666-2.31
		c-0.726,0-1.421,0.123-2.083,0.368c-0.659,0.246-1.352,0.614-2.082,1.104l-1.192-2.539c0.88-0.574,1.794-1.006,2.742-1.294
		c0.949-0.288,1.956-0.432,3.021-0.432c2.014,0,3.57,0.475,4.671,1.422c1.1,0.948,1.65,2.335,1.65,4.163v3.427
		c0,0.406,0.064,0.69,0.19,0.85c0.128,0.163,0.353,0.26,0.673,0.295v3.425c-0.356,0.086-0.678,0.14-0.965,0.165
		c-0.289,0.026-0.551,0.039-0.787,0.039c-0.762,0-1.337-0.148-1.727-0.444c-0.39-0.296-0.635-0.716-0.736-1.257l-0.077-0.608
		c-0.592,0.761-1.298,1.346-2.119,1.75C114.224,27.144,113.359,27.346,112.445,27.346z M113.638,24.427
		c0.439,0,0.866-0.075,1.281-0.229s0.757-0.355,1.028-0.609c0.39-0.305,0.583-0.626,0.583-0.965v-1.269
		c-0.355-0.136-0.74-0.241-1.155-0.318c-0.414-0.076-0.799-0.115-1.154-0.115c-0.746,0-1.359,0.172-1.842,0.51
		c-0.482,0.338-0.722,0.777-0.722,1.32c0,0.49,0.186,0.892,0.558,1.205S113.062,24.427,113.638,24.427z"/>
	<path fill="#666666" d="M131.993,17.242c-0.982,0.017-1.871,0.177-2.666,0.482c-0.796,0.304-1.372,0.761-1.727,1.37v7.997h-4.062
		V13.764h3.73v2.691c0.458-0.898,1.046-1.599,1.765-2.108c0.72-0.508,1.485-0.77,2.298-0.788c0.187,0,0.323,0,0.408,0
		c0.083,0,0.168,0.009,0.254,0.025V17.242z"/>
	<path fill="#666666" d="M142.325,26.383c-0.56,0.234-1.198,0.455-1.916,0.659c-0.721,0.202-1.443,0.304-2.17,0.304
		c-0.511,0-0.988-0.063-1.436-0.189c-0.448-0.129-0.843-0.331-1.181-0.609c-0.339-0.279-0.605-0.647-0.8-1.105
		c-0.197-0.456-0.294-1.006-0.294-1.65v-6.955h-1.7v-3.072h1.7v-4.24h4.063v4.24h2.716v3.072h-2.716v5.56
		c0,0.439,0.109,0.757,0.331,0.952c0.218,0.195,0.497,0.293,0.836,0.293c0.304,0,0.617-0.052,0.939-0.153
		c0.321-0.101,0.602-0.211,0.84-0.329L142.325,26.383z"/>
	<path fill="#666666" d="M143.899,12.241V8.56h4.062v3.681H143.899z M143.899,27.092V13.764h4.062v13.328H143.899L143.899,27.092z"
		/>
	<path fill="#666666" d="M149.966,20.416c0-0.914,0.161-1.79,0.483-2.628c0.321-0.837,0.785-1.573,1.396-2.209
		c0.609-0.635,1.358-1.138,2.245-1.51c0.891-0.372,1.901-0.559,3.034-0.559c1.541,0,2.836,0.325,3.885,0.977
		c1.05,0.652,1.837,1.502,2.361,2.552l-3.961,1.193c-0.525-0.846-1.294-1.271-2.31-1.271c-0.846,0-1.553,0.314-2.119,0.94
		c-0.568,0.627-0.85,1.464-0.85,2.514c0,0.525,0.075,1.003,0.228,1.435c0.151,0.433,0.363,0.799,0.634,1.103
		c0.271,0.305,0.588,0.542,0.953,0.712c0.362,0.17,0.747,0.254,1.155,0.254c0.508,0,0.973-0.123,1.396-0.367
		c0.421-0.245,0.736-0.563,0.939-0.952l3.961,1.219c-0.491,1.031-1.275,1.878-2.349,2.539c-1.075,0.66-2.384,0.989-3.924,0.989
		c-1.116,0-2.119-0.189-3.007-0.572c-0.889-0.381-1.642-0.887-2.26-1.521c-0.617-0.635-1.087-1.372-1.408-2.211
		C150.127,22.205,149.966,21.328,149.966,20.416z"/>
	<path fill="#666666" d="M165.223,12.241V8.56h4.063v3.681H165.223z M165.223,27.092V13.764h4.063v13.328H165.223L165.223,27.092z"
		/>
	<path fill="#666666" d="M180.506,27.346c-1.016,0-1.896-0.212-2.642-0.635c-0.744-0.422-1.319-1.016-1.726-1.776V32.5h-4.063
		V13.764h3.53v2.157c0.489-0.761,1.104-1.353,1.839-1.777c0.736-0.422,1.613-0.634,2.628-0.634c0.897,0,1.722,0.178,2.475,0.533
		c0.754,0.355,1.406,0.842,1.956,1.46s0.981,1.345,1.294,2.183c0.313,0.838,0.471,1.74,0.471,2.705c0,1-0.145,1.92-0.431,2.767
		c-0.288,0.847-0.688,1.579-1.194,2.196s-1.117,1.103-1.828,1.459C182.105,27.168,181.334,27.346,180.506,27.346z M179.133,23.919
		c0.441,0,0.842-0.097,1.208-0.293c0.363-0.194,0.681-0.452,0.951-0.773c0.271-0.322,0.479-0.698,0.621-1.13
		c0.145-0.432,0.217-0.884,0.217-1.358c0-0.492-0.079-0.942-0.241-1.358c-0.16-0.416-0.38-0.774-0.66-1.08
		c-0.28-0.304-0.617-0.541-1.016-0.71c-0.396-0.169-0.825-0.255-1.281-0.255c-0.56,0-1.096,0.166-1.613,0.496
		c-0.516,0.33-0.911,0.775-1.18,1.333v2.742c0.269,0.677,0.681,1.244,1.231,1.701C177.92,23.69,178.508,23.919,179.133,23.919z"/>
	<path fill="#666666" d="M192.107,27.346c-0.661,0-1.273-0.105-1.84-0.318c-0.567-0.209-1.054-0.507-1.46-0.887
		c-0.406-0.382-0.728-0.83-0.965-1.347c-0.238-0.516-0.355-1.077-0.355-1.688c0-0.659,0.14-1.261,0.417-1.803
		c0.279-0.541,0.673-1.007,1.182-1.396c0.507-0.389,1.108-0.694,1.803-0.914c0.693-0.219,1.464-0.329,2.31-0.329
		c0.559,0,1.1,0.047,1.625,0.14c0.523,0.093,0.98,0.233,1.369,0.419v-0.609c0-1.54-0.887-2.31-2.665-2.31
		c-0.727,0-1.421,0.123-2.082,0.368c-0.659,0.246-1.354,0.614-2.082,1.104l-1.192-2.539c0.879-0.574,1.794-1.006,2.742-1.294
		c0.948-0.288,1.955-0.432,3.021-0.432c2.014,0,3.571,0.475,4.671,1.422c1.101,0.948,1.65,2.335,1.65,4.163v3.427
		c0,0.406,0.063,0.69,0.189,0.85c0.129,0.163,0.353,0.26,0.674,0.295v3.425c-0.355,0.086-0.677,0.14-0.964,0.165
		c-0.289,0.026-0.552,0.039-0.787,0.039c-0.763,0-1.338-0.148-1.728-0.444s-0.634-0.716-0.736-1.257l-0.075-0.608
		c-0.594,0.761-1.299,1.346-2.12,1.75C193.887,27.144,193.021,27.346,192.107,27.346z M193.301,24.427
		c0.439,0,0.866-0.075,1.281-0.229c0.416-0.153,0.758-0.355,1.029-0.609c0.389-0.305,0.583-0.626,0.583-0.965v-1.269
		c-0.355-0.136-0.739-0.241-1.155-0.318c-0.414-0.076-0.8-0.115-1.154-0.115c-0.745,0-1.358,0.172-1.842,0.51
		c-0.48,0.338-0.723,0.777-0.723,1.32c0,0.49,0.187,0.892,0.559,1.205C192.25,24.271,192.725,24.427,193.301,24.427z"/>
</g>
</svg>
