<?xml version="1.0" encoding="utf-8"?>
<!-- Generator: Adobe Illustrator 16.0.0, SVG Export Plug-In . SVG Version: 6.00 Build 0)  -->
<!DOCTYPE svg PUBLIC "-//W3C//DTD SVG 1.1//EN" "http://www.w3.org/Graphics/SVG/1.1/DTD/svg11.dtd">
<svg version="1.1" id="Capa_1" xmlns="http://www.w3.org/2000/svg" xmlns:xlink="http://www.w3.org/1999/xlink" x="0px" y="0px"
	 width="150px" height="150px" viewBox="60.5 60.5 150 150" enable-background="new 60.5 60.5 150 150" xml:space="preserve">
<g>
	<path fill="#FFFFFF" d="M185.325,131.281c-2.062-1.763-8.886-3.163-15.997-4.171l0.026-0.152V76.94
		c0-6.852-5.368-12.456-11.989-12.456c-6.591,0-11.963,5.604-11.963,12.456v26.912c-1.92-1.278-4.146-2.039-6.592-2.039
		c-3.567,0-6.765,1.663-8.993,4.216c-2.235-2.554-5.433-4.216-9.03-4.216c-3.576,0-6.792,1.663-9,4.216
		c-2.239-2.554-5.437-4.216-9.032-4.216c-6.442,0-11.697,5.255-12.049,11.816l-0.058,0.32v52.259
		c0,25.373,19.978,43.093,48.57,43.093c28.627,0,48.574-17.72,48.574-43.093v-29.961
		C187.819,134.301,186.311,132.123,185.325,131.281L185.325,131.281z M157.365,70.437c3.342,0,6.04,2.896,6.04,6.504v49.406
		c-2.526-0.284-4.937-0.516-6.996-0.727c-1.918-0.203-3.572-0.138-5.052,0V76.94C151.357,73.333,154.056,70.437,157.365,70.437
		L157.365,70.437z M138.837,107.766c3.399,0,6.158,2.938,6.158,6.538v12.165l0.271,1.161c-2.151,1.445-3.37,3.362-4.07,5.22
		c-0.838,2.328-0.896,4.709-0.32,6.973c-0.547,0.146-1.106,0.26-1.687,0.26c-3.307,0-5.973-2.816-6.123-6.27l0.029-0.261v-19.742
		l-0.169-0.877C133.533,110.008,135.881,107.766,138.837,107.766L138.837,107.766z M120.817,107.766c3.077,0,5.574,2.504,5.974,5.64
		l-0.08,0.898v20.055l0.141,0.731c-0.67,2.818-2.985,4.966-5.863,4.966c-3.277,0-5.923-2.728-6.094-6.154v-20.09l-0.09-0.405
		C115.243,110.233,117.711,107.766,120.817,107.766L120.817,107.766z M102.784,107.766c3.079,0,5.574,2.504,5.985,5.64l-0.091,0.898
		v20.577c-0.576,2.933-2.937,5.175-5.894,5.175c-3.396,0-6.183-2.91-6.183-6.533V114.27
		C96.601,110.704,99.359,107.766,102.784,107.766L102.784,107.766z M181.869,166.179c0,21.9-17.536,37.162-42.618,37.162
		c-25.114,0-42.65-15.262-42.65-37.162V144.23c1.828,1.112,3.918,1.801,6.183,1.801c3.629,0,6.883-1.705,9.083-4.349
		c2.234,2.644,5.462,4.349,9.12,4.349c3.658,0,6.88-1.705,9.12-4.349c2.2,2.644,5.454,4.349,9.081,4.349
		c1.571,0,3.109-0.4,4.536-1.01c1.387,1.537,3.128,2.845,5.284,3.63l18.984,5.226c1.566,0.435,3.191-0.493,3.659-2.09
		c0.406-1.569-0.493-3.203-2.093-3.629l-18.754-5.168c-3.364-1.249-5.192-4.884-4.002-8.079c0.429-1.248,1.479-4.238,8.996-3.369
		c10.771,1.025,23.661,2.911,25.578,4.217l0.492,0.488V166.179L181.869,166.179z"/>
</g>
</svg>
