<?xml version="1.0" encoding="utf-8"?>
<!-- Generator: Adobe Illustrator 16.0.0, SVG Export Plug-In . SVG Version: 6.00 Build 0)  -->
<!DOCTYPE svg PUBLIC "-//W3C//DTD SVG 1.1//EN" "http://www.w3.org/Graphics/SVG/1.1/DTD/svg11.dtd">
<svg version="1.1" id="Capa_1" xmlns="http://www.w3.org/2000/svg" xmlns:xlink="http://www.w3.org/1999/xlink" x="0px" y="0px"
	 width="150px" height="150px" viewBox="60.5 60.5 150 150" enable-background="new 60.5 60.5 150 150" xml:space="preserve">
<g>
	
		<circle fill="none" stroke="#FFFFFF" stroke-width="4.4306" stroke-linecap="round" stroke-linejoin="round" stroke-miterlimit="10" cx="137.323" cy="143.753" r="65.054"/>
	
		<circle fill="none" stroke="#FFFFFF" stroke-width="4.4306" stroke-linecap="round" stroke-linejoin="round" stroke-miterlimit="10" cx="137.324" cy="143.66" r="54.343"/>
	
		<path fill="none" stroke="#FFFFFF" stroke-width="4.4306" stroke-linecap="round" stroke-linejoin="round" stroke-miterlimit="10" d="
		M145.363,70.822c0,4.248-3.44,7.689-7.687,7.689c-4.249,0-7.691-3.441-7.691-7.689s3.442-7.689,7.691-7.689
		C141.921,63.133,145.363,66.574,145.363,70.822z"/>
	
		<line fill="none" stroke="#FFFFFF" stroke-width="4.4306" stroke-linecap="round" stroke-linejoin="round" stroke-miterlimit="10" x1="84.959" y1="143.565" x2="93.373" y2="143.565"/>
	
		<line fill="none" stroke="#FFFFFF" stroke-width="4.4306" stroke-linecap="round" stroke-linejoin="round" stroke-miterlimit="10" x1="180.858" y1="143.565" x2="189.272" y2="143.565"/>
	
		<line fill="none" stroke="#FFFFFF" stroke-width="4.4306" stroke-linecap="round" stroke-linejoin="round" stroke-miterlimit="10" x1="137.396" y1="98.98" x2="137.396" y2="90.568"/>
	
		<line fill="none" stroke="#FFFFFF" stroke-width="4.4306" stroke-linecap="round" stroke-linejoin="round" stroke-miterlimit="10" x1="137.396" y1="197.123" x2="137.396" y2="188.711"/>
	
		<polygon fill="none" stroke="#FFFFFF" stroke-width="4.4306" stroke-linecap="round" stroke-linejoin="round" stroke-miterlimit="10" points="
		130.292,136.652 164.563,115.919 144.964,150.852 	"/>
	
		<polygon fill="#FFFFFF" stroke="#FFFFFF" stroke-width="3.046" stroke-linecap="round" stroke-linejoin="round" stroke-miterlimit="10" points="
		145.531,151.201 109.067,173.26 129.923,136.095 	"/>
</g>
</svg>
