<?xml version="1.0" encoding="utf-8"?>
<!-- Generator: Adobe Illustrator 16.0.0, SVG Export Plug-In . SVG Version: 6.00 Build 0)  -->
<!DOCTYPE svg PUBLIC "-//W3C//DTD SVG 1.1//EN" "http://www.w3.org/Graphics/SVG/1.1/DTD/svg11.dtd">
<svg version="1.1" id="Capa_1" xmlns="http://www.w3.org/2000/svg" xmlns:xlink="http://www.w3.org/1999/xlink" x="0px" y="0px"
	 width="150px" height="150px" viewBox="60.5 60.5 150 150" enable-background="new 60.5 60.5 150 150" xml:space="preserve">
<path fill="#FFFFFF" d="M199.45,80.943c-7.234-2.968-14.794-4.415-23.104-4.415c-13.942,0-27.822,4.161-41.25,8.19
	c-12.914,3.867-26.259,7.88-39.101,7.88c-7.312,0-13.94-1.267-20.271-3.867c-1.666-0.68-3.29-1.023-4.823-1.023
	c-4.829,0-8.06,3.351-8.06,8.328v16.166v44.979v16.171c0,5.966,4.609,12.877,10.05,15.089c7.24,2.979,14.793,4.421,23.093,4.421
	c0,0,0.007,0,0.01,0c13.936,0,27.82-4.168,41.25-8.192c12.91-3.873,26.259-7.878,39.101-7.878c7.31,0,13.938,1.265,20.268,3.868
	c1.67,0.679,3.296,1.022,4.823,1.022c4.822,0,8.063-3.348,8.063-8.331v-16.171v-44.979V96.035
	C209.501,90.069,204.889,83.163,199.45,80.943z M70.33,96.035c0-0.534,0.097-0.756,0.087-0.774c0.057-0.024,0.207-0.065,0.486-0.065
	c0.547,0,1.258,0.17,1.991,0.464c7.241,2.98,14.793,4.421,23.104,4.421c13.945,0,27.827-4.159,41.252-8.193
	c12.907-3.87,26.257-7.873,39.099-7.873c7.309,0,13.937,1.264,20.269,3.861c2.901,1.185,5.399,5.475,5.399,8.161v20.046
	c0,0.527-0.102,0.761-0.09,0.77c-0.055,0.027-0.206,0.074-0.487,0.074c-0.551,0-1.255-0.173-1.987-0.473
	c-7.234-2.974-14.794-4.421-23.104-4.421c-13.943,0-27.827,4.165-41.253,8.192c-12.91,3.871-26.256,7.875-39.098,7.875
	c-0.003,0-0.003,0-0.003,0c-7.308,0-13.937-1.265-20.268-3.861c-2.903-1.185-5.395-5.479-5.395-8.156L70.33,96.035L70.33,96.035z
	 M202.016,173.352c0,0.537-0.102,0.763-0.09,0.772c-0.055,0.024-0.206,0.07-0.487,0.07c-0.551,0-1.255-0.173-1.987-0.472
	c-7.234-2.969-14.794-4.422-23.104-4.422c-13.943,0-27.827,4.165-41.253,8.199c-12.91,3.871-26.256,7.874-39.098,7.874
	c-0.003,0-0.003,0-0.003,0c-7.308,0-13.937-1.265-20.268-3.862c-2.903-1.183-5.395-5.479-5.395-8.16v-19.91
	c0-0.523,0.096-0.749,0.086-0.773c0.056-0.016,0.208-0.062,0.486-0.062c0.547,0,1.258,0.167,1.991,0.471
	c7.24,2.977,14.793,4.421,23.104,4.421c13.945,0,27.827-4.171,41.252-8.192c12.907-3.878,26.256-7.88,39.098-7.88
	c7.31,0,13.938,1.26,20.269,3.866c2.902,1.176,5.4,5.469,5.4,8.149L202.016,173.352L202.016,173.352z"/>
</svg>
