<?xml version="1.0" encoding="utf-8"?>
<!-- Generator: Adobe Illustrator 16.0.0, SVG Export Plug-In . SVG Version: 6.00 Build 0)  -->
<!DOCTYPE svg PUBLIC "-//W3C//DTD SVG 1.1//EN" "http://www.w3.org/Graphics/SVG/1.1/DTD/svg11.dtd">
<svg version="1.1" id="Capa_1" xmlns="http://www.w3.org/2000/svg" xmlns:xlink="http://www.w3.org/1999/xlink" x="0px" y="0px"
	 width="150px" height="150px" viewBox="60.5 60.5 150 150" enable-background="new 60.5 60.5 150 150" xml:space="preserve">
<g>
	
		<polyline fill="none" stroke="#FFFFFF" stroke-width="4.2664" stroke-linecap="round" stroke-linejoin="round" stroke-miterlimit="10" points="
		134.727,170.765 115.025,170.765 115.025,116.908 156.877,116.908 156.877,149.092 	"/>
	
		<line fill="none" stroke="#FFFFFF" stroke-width="4.2664" stroke-linecap="round" stroke-linejoin="round" stroke-miterlimit="10" x1="124.547" y1="133.657" x2="148.851" y2="133.657"/>
	
		<line fill="none" stroke="#FFFFFF" stroke-width="4.2664" stroke-linecap="round" stroke-linejoin="round" stroke-miterlimit="10" x1="124.547" y1="143.181" x2="148.851" y2="143.181"/>
	
		<line fill="none" stroke="#FFFFFF" stroke-width="4.2664" stroke-linecap="round" stroke-linejoin="round" stroke-miterlimit="10" x1="124.547" y1="152.704" x2="148.851" y2="152.704"/>
	
		<polyline fill="none" stroke="#FFFFFF" stroke-width="4.2664" stroke-linecap="round" stroke-linejoin="round" stroke-miterlimit="10" points="
		140.64,162.556 149.832,174.705 163.628,155.328 	"/>
	
		<path fill="none" stroke="#FFFFFF" stroke-width="4.2664" stroke-linecap="round" stroke-linejoin="round" stroke-miterlimit="10" d="
		M135.385,67.324c3.626,0,6.566,2.94,6.566,6.568c0,3.626-2.94,6.568-6.566,6.568c-3.627,0-6.568-2.942-6.568-6.568
		C128.817,70.264,131.757,67.324,135.385,67.324z"/>
	
		<path fill="none" stroke="#FFFFFF" stroke-width="4.2664" stroke-linecap="round" stroke-linejoin="round" stroke-miterlimit="10" d="
		M145.688,92.53c0-5.531-4.483-10.017-10.014-10.017c-5.534,0-10.018,4.485-10.018,10.017H145.688z"/>
	
		<circle fill="none" stroke="#FFFFFF" stroke-width="4.2664" stroke-linecap="round" stroke-linejoin="round" stroke-miterlimit="10" cx="196.135" cy="163.868" r="6.567"/>
	
		<path fill="none" stroke="#FFFFFF" stroke-width="4.2664" stroke-linecap="round" stroke-linejoin="round" stroke-miterlimit="10" d="
		M206.439,182.507c0-5.532-4.484-10.016-10.017-10.016c-5.53,0-10.016,4.483-10.016,10.016H206.439z"/>
	
		<circle fill="none" stroke="#FFFFFF" stroke-width="4.2664" stroke-linecap="round" stroke-linejoin="round" stroke-miterlimit="10" cx="75.621" cy="163.868" r="6.567"/>
	
		<path fill="none" stroke="#FFFFFF" stroke-width="4.2664" stroke-linecap="round" stroke-linejoin="round" stroke-miterlimit="10" d="
		M85.922,182.507c0-5.532-4.484-10.016-10.016-10.016c-5.531,0-10.015,4.483-10.015,10.016H85.922z"/>
	
		<path fill="none" stroke="#FFFFFF" stroke-width="4.2664" stroke-linecap="round" stroke-linejoin="round" stroke-miterlimit="10" d="
		M177.222,187.517c-10.729,10.725-25.548,17.359-41.914,17.359c-15.302,0-29.248-5.797-39.763-15.313"/>
	
		<path fill="none" stroke="#FFFFFF" stroke-width="4.2664" stroke-linecap="round" stroke-linejoin="round" stroke-miterlimit="10" d="
		M152.934,88.994c24.127,7.505,41.647,30.011,41.647,56.61"/>
	
		<path fill="none" stroke="#FFFFFF" stroke-width="4.2664" stroke-linecap="round" stroke-linejoin="round" stroke-miterlimit="10" d="
		M76.034,145.604c0-26.262,17.08-48.534,40.736-56.316"/>
</g>
</svg>
