<?xml version="1.0" encoding="utf-8"?>
<!-- Generator: Adobe Illustrator 16.0.0, SVG Export Plug-In . SVG Version: 6.00 Build 0)  -->
<!DOCTYPE svg PUBLIC "-//W3C//DTD SVG 1.1//EN" "http://www.w3.org/Graphics/SVG/1.1/DTD/svg11.dtd">
<svg version="1.1" id="Capa_1" xmlns="http://www.w3.org/2000/svg" xmlns:xlink="http://www.w3.org/1999/xlink" x="0px" y="0px"
	 width="150px" height="150px" viewBox="60.5 60.5 150 150" enable-background="new 60.5 60.5 150 150" xml:space="preserve">
<g>
	<path fill="#FFFFFF" d="M136.763,80.794c9.87-8.154,21.017-11.513,33.608-10.755c24.774,1.49,43.58,24.507,40.009,49.078
		c-1.141,7.838-4.196,14.755-9.135,20.862c-1.254,1.553-1.698,2.834-1.173,4.977c1.957,8.005-3.795,15.358-11.992,15.75
		c-0.684,0.031-1.375,0-1.292,0.595c-1.69,3.411-2.717,7.488-5.265,10.047c-2.492,2.5-6.539,3.452-10.41,5.328
		c-1.258,7.853-4.238,11.569-11.033,13.012c-0.113,0.022-0.237,0.113-0.336,0.089c-5.028-1.427-7.268,2.462-10.074,5.276
		c-2.056,2.067-4.071,4.18-6.176,6.197c-3.933,3.769-8.558,5.364-13.798,3.414c-5.198-1.935-8.486-5.641-8.933-11.435
		c-0.05-0.681-0.229-1.349-0.346-2.007c-8.913,0.232-13.343-3.93-15.137-14.096c-8.325-0.81-14.045-4.182-14.853-14.579
		c-2.377-0.541-4.891-0.726-7.062-1.682c-5.249-2.313-7.86-7.642-7.326-13.506c0.117-1.268-0.302-2.937-1.104-3.889
		c-9.352-11.096-13.289-23.761-10.781-38.093c2.815-16.117,12.446-26.916,27.586-32.453C107.925,67,122.909,70.1,136.763,80.794z
		 M131.983,84.471c-12.201-11.557-36.962-12.841-52.368,2.256c-15.325,15.023-13.066,40.697,0.65,53.799
		c2.842-3.032,5.537-6.258,8.59-9.094c7.271-6.758,18.273-4.194,21.756,5.031c0.666,1.763,0.689,3.771,0.997,5.611
		c10.118,0.957,13.393,4.118,14.662,13.97c10.294,1.646,12.209,3.544,15.031,14.929c7.737,0.321,13.161,3.467,14.56,11.757
		c0.113,0.685,1.933,1.814,2.354,1.593c2.352-1.246,5.212-2.388,6.561-4.446c1.61-2.438,1.141-5.562-1.357-7.943
		c-3.544-3.379-6.952-6.908-10.441-10.353c-3.398-3.354-6.92-6.605-10.222-10.058c-1.826-1.906-1.037-4.604,1.263-4.621
		c1.098-0.006,2.406,0.816,3.262,1.632c6.507,6.215,12.892,12.559,19.411,18.76c1.115,1.06,2.626,2.056,4.097,2.347
		c3.974,0.782,6.808-0.724,8.464-3.993c1.5-2.961,0.857-5.884-2.098-8.807c-6.383-6.308-12.79-12.594-19.245-18.838
		c-1.487-1.434-2.1-2.93-0.621-4.528c1.659-1.796,3.131-0.636,4.469,0.68c2.003,1.96,3.996,3.934,6.041,5.854
		c5.021,4.712,9.86,9.644,15.174,13.998c3.308,2.707,7.865,1.717,10.336-1.364c2.598-3.235,2.248-7.054-1.03-10.334
		c-12.809-12.806-25.631-25.6-38.46-38.384c-0.618-0.619-1.37-1.101-3.386-2.692c-5.978,6.564-11.751,13.172-17.837,19.475
		c-4.128,4.277-10.413,5.171-15.122,2.746c-8.38-4.315-9.827-13.894-3.175-20.702C120.164,96.753,125.968,90.697,131.983,84.471z
		 M194.778,138.409c8.002-7.003,11.942-20.369,10.076-31.31c-5.086-29.806-40.445-40.854-62.394-23.402
		c-9.009,7.163-16.853,15.809-25.08,23.935c-2.819,2.784-2.345,6.972,0.603,9.65c3.131,2.85,7.477,2.72,10.99-0.608
		c6.524-6.184,12.92-12.5,19.382-18.75c2.905-2.814,4.264-2.817,7.028-0.056c1.569,1.567,3.158,3.119,4.7,4.712
		C171.621,114.482,183.144,126.389,194.778,138.409z M141.438,176.388c-0.946,0.472-3.029,1.065-4.52,2.35
		c-2.989,2.572-5.709,5.466-8.436,8.327c-3.213,3.37-3.224,7.782-0.159,10.881c3.052,3.08,7.676,3.238,10.93,0.189
		c3.039-2.859,5.939-5.87,8.87-8.844c2.365-2.402,2.948-5.239,1.644-8.341C148.434,177.793,145.753,176.615,141.438,176.388z
		 M111.177,177.085c-0.055,3.905,1.289,6.208,4.098,7.536c3.141,1.483,6.227,1.188,8.786-1.155c3.182-2.915,6.225-5.99,9.167-9.145
		c2.67-2.87,2.706-7.223,0.33-9.893c-2.599-2.915-7.097-3.755-10.101-1.225c-3.909,3.299-7.447,7.057-10.97,10.784
		C111.61,174.915,111.414,176.489,111.177,177.085z M105.407,171.173c0.929-0.546,2.989-1.381,4.567-2.772
		c2.879-2.534,5.505-5.362,8.178-8.123c3.049-3.15,3.227-7.33,0.525-10.364c-2.602-2.92-7.732-3.434-10.728-0.713
		c-3.446,3.125-6.656,6.514-9.845,9.906c-2.145,2.278-2.397,5.062-1,7.784C98.534,169.678,100.932,171.198,105.407,171.173z
		 M89.562,157.08c1.796-0.925,3.849-1.561,5.335-2.842c2.912-2.513,5.576-5.326,8.227-8.124c3.459-3.652,3.578-7.752,0.459-10.858
		c-3.07-3.055-7.882-2.97-11.3,0.317c-2.857,2.747-5.611,5.603-8.396,8.428c-2.258,2.291-3.036,5.003-1.794,8.008
		C83.383,155.137,85.833,156.691,89.562,157.08z"/>
</g>
</svg>
